<svg xmlns="http://www.w3.org/2000/svg" width="686" height="276" viewBox="0 0 686 276"><g fill="none" stroke="#CE4E27" stroke-miterlimit="10"><path d="M421.552 142.783l-.97 11.748L453 136.043l.007-.13-29.353-18.574-.912 11.03-149.87-1.454-3.41 12.75zM277.956 132.326l9.893.14-.505 2.043-9.914-.158.526-2.026zm19.95.284l10.23.144-.46 2.078-10.252-.164.483-2.058zm20.635.293l10.582.15-.414 2.112-10.607-.168.44-2.094zm21.348.303l10.954.155-.365 2.152-10.98-.175.39-2.13zm22.1.314l11.345.162-.312 2.19-11.372-.18.34-2.172zm22.895.325l11.758.167-.253 2.23-11.787-.187.283-2.21zm23.732.338l12.19.172-.188 2.274-12.228-.195.225-2.252z"/></g><g fill="none" stroke="#CE4E27" stroke-miterlimit="10"><path d="M124.112 253.618l2.717-2.43c2.165 1.81 4.496 3.392 6.934 4.7l-2.396 2.69c-2.555-1.383-4.996-3.057-7.256-4.96zm16.046 8.525l1.897-2.924c3.06.847 6.276 1.343 9.554 1.472l-1.197 3.045c-3.523-.14-6.976-.678-10.255-1.594zm21.53.766l.34-2.985c3.5-.637 7.085-1.66 10.64-3.042l.512 2.723c-3.835 1.496-7.704 2.61-11.493 3.303zm22.393-8.635l-1.224-2.35c3.132-1.83 6.264-3.956 9.308-6.306l1.743 1.957c-3.207 2.493-6.513 4.75-9.826 6.698zm16.07-15.875c2.378-2.53 4.483-5.207 6.264-7.94l2.63.888c-1.883 2.924-4.12 5.784-6.643 8.497l-2.25-1.445zm10.583-16.187c1.095-2.736 1.863-5.484 2.286-8.166l2.953-.204c-.432 2.854-1.23 5.778-2.376 8.697l-2.864-.327zm2.547-15.897c-.244-2.46-.815-4.812-1.69-7l2.753-1.123c.95 2.32 1.573 4.82 1.852 7.432l-2.915.69zm-5.183-13.017c-.766-.968-1.62-1.894-2.534-2.757l-2.45-2.304 2.317-1.617 2.453 2.284c.98.91 1.888 1.89 2.706 2.91l-2.493 1.482zM213.113 184.828l11.146-7.855-30.886 1.185-.125.084-6.98 25.498 12.123-8.54c11.303 10.96 6.955 30.97-11.207 44.797-19.24 14.648-44.63 15.486-55.04 1.87l-18.853 13.28c15.395 22.033 55.246 20.777 84.96-2.81 27.18-21.577 32.3-51.65 14.86-67.51z"/></g><g fill="none" stroke="#CE4E27" stroke-miterlimit="10"><path d="M490.74 179.215l2.29 1.396c-4.023 1.122-8.108 2.39-11.602 3.665l-1.592-1.526c3.64-1.34 6.718-2.357 10.904-3.535zm-21.67 8.118l2.117 1.29c-3.254 1.61-6.18 3.324-8.71 5.104l-2.66-.965c2.69-1.895 5.8-3.718 9.252-5.43zm-16.372 11.603l3.132.55c-1.8 1.99-3.225 4.08-4.23 6.214l-3.433-.118c1.08-2.287 2.604-4.52 4.53-6.646zm-6.446 13.412l3.562-.267c-.208 2.056-.072 4.19.393 6.348l-3.575.58c-.48-2.26-.605-4.5-.38-6.66zm6.474 12.136c1.242 1.947 2.896 3.81 4.91 5.533l-3.188 1.31c-2.127-1.832-3.87-3.816-5.178-5.89l3.456-.953zm12.107 10.306c2.77 1.444 5.883 2.72 9.268 3.79l-2.22 1.897c-3.586-1.146-6.89-2.514-9.823-4.058l2.776-1.63zm19.198 5.914c3.947.65 8.113 1.07 12.378 1.24l-.724 2.208c-4.55-.188-8.982-.646-13.188-1.354l1.535-2.094zm22.667 1.648c2.382-.183 4.804-.436 7.188-.764l5.02-.684.74 2.186-5.1.684c-2.554.345-5.135.61-7.68.8l-.168-2.222zM520.777 248.782l3.4 11.265 29.444-22.913-.046-.123-40.164-12.617 3.194 10.574c-28.076 3.977-52.607-4.473-55.852-18.244-3.132-13.29 20.322-28.817 46.276-33.646l-15.69-8.242c-37.85 7.43-57.242 26.11-53.247 45.616 4.215 20.554 40.145 33.852 82.687 28.332z"/></g><text transform="translate(299.964 225.185)" fill="#CE4E27" font-family="'Helvetica-Oblique'" font-size="24">Supply</text><path fill="none" stroke="#0078BD" stroke-miterlimit="10" d="M637.506 136.622s-21.072-101.77-92.337-91.495"/><path fill="#0078BD" d="M534.81 47.333l13.41-8.95-2.255 6.68 4.685 5.27z"/><path fill="none" stroke="#0078BD" stroke-miterlimit="10" d="M476.343 28.41s-116.803-50.73-234.31-4.103"/><path fill="#0078BD" d="M232.268 28.41L243.7 17.044l-.925 6.99 5.614 4.268z"/><path fill="none" stroke="#0078BD" stroke-miterlimit="10" d="M172.68 53.347S84.784 32.087 43.662 123.43"/><path fill="#0078BD" d="M39.607 133.215l.195-16.12 4.238 5.635 6.994-.886z"/><text transform="translate(301.084 34.139)" fill="#0078BD" font-family="'Helvetica-Oblique'" font-size="24">Demand</text><path fill="none" stroke="#000" stroke-miterlimit="10" d="M190.333 116.757V164.5l-16.883-12.193M182.49 111.685l4.666 3.016M155.527 139.36l-4.616-3.333V91.26l28.533 18.454M240.416 117.186l7.906-7.47.402-42.356-58.39 49.397v47.74l11.765-11.114M218.414 137.97l10.498-9.917M217.017 105.58l-2.577-1.655-16.69 14.392v31.966l2.576 1.67M239.518 85.385l-2.266-1.133-11.688 10.078v31.642l2.267 1.132"/><path fill="none" stroke="#000" stroke-miterlimit="10" d="M239.518 85.385L227.83 95.463v31.64L239.52 116.2zM239.517 116.2l-11.685-7.003"/><path fill="none" stroke="#000" stroke-miterlimit="10" d="M217.017 105.58l-16.69 14.408v31.966l16.69-15.528zM216.654 136.477l-16.328-10.627"/><path fill="none" stroke="#000" stroke-miterlimit="10" d="M247.61 123.293l-8.265-7.017-11.514 10.828 8.345 7.315zM228.374 146.425l-11.72-9.948-16.328 15.352 11.83 10.37zM156.404 108.046M156.404 108.046l3.024-1.8 17.856 11.828v31.264l-3.022 1.803"/><path fill="none" stroke="#000" stroke-miterlimit="10" d="M174.262 151.14l-17.858-12.732v-30.362l17.858 11.83zM147.37 148.288l9.034-9.88L174.32 151.3l-8.986 10.393-17.964-13.405M156.404 138.408l17.858-14.862M247.35 66.646l1.374.714M241.694 63.702l3.48 1.81M234.363 59.886l5.112 2.66M150.58 91.047l59.67-43.714 20.176 10.503M179.448 99.61l-15.91-10.42M192.334 108.046l-9.84-6.442M181.475 87.55l-8.795-5.56M194.912 96.076l-10.667-6.686M201.067 99.936L197.5 97.7M191.433 80.506l-9.2-5.697M201.067 86.473l-4.05-2.51M210.847 92.528l-7.242-4.484M201.068 72.44l-8.844-5.316M208.513 76.915l-4.904-2.947M215.298 80.994l-4.957-2.98M220.72 84.252l-1.588-.954M222.735 73.34l-22.707-12.877M228.412 76.56l-3.325-1.885M222.738 60.952l-13.342-7.605M230.394 65.315L227.56 63.7M237.625 69.438l-4.84-2.76"/><g fill="none" stroke="#000"><path d="M187.247 82.965c3.438-2.73 6.058-3.42 7.88-2.093 1.81 1.318 2.712 4.805 2.712 10.465 0 2.963-.203 5.756-.607 8.383-.405 2.63-1.036 5.09-1.89 7.38-.86 2.3-1.956 4.433-3.293 6.4-1.344 1.98-2.944 3.76-4.803 5.35l-7.803 6.664V89.162l7.803-6.197zm.25 31.65c.336-.284.755-.68 1.255-1.188.5-.506 1.03-1.156 1.59-1.947.56-.79 1.114-1.716 1.66-2.776.547-1.058 1.036-2.283 1.467-3.674.43-1.39.784-2.97 1.06-4.738.276-1.77.415-3.743.415-5.926 0-2.117-.128-3.906-.384-5.37s-.675-2.546-1.26-3.25c-.585-.706-1.343-.994-2.272-.863-.933.132-2.087.748-3.465 1.852l-5.068 4.06v28.063l5.003-4.243zM201.067 77.094v-5.106l2.54-2.017v5.086l-2.54 2.038zm2.54 2.508v25.273l-2.54 2.168V81.66l2.54-2.058zM209.407 94.33c.233.432.538.674.917.724.377.05.803-.044 1.276-.286.472-.238.957-.57 1.457-.996.384-.325.785-.714 1.207-1.168.42-.452.806-.954 1.158-1.51.352-.554.64-1.173.87-1.86.228-.687.34-1.412.34-2.177 0-1.052-.236-1.648-.71-1.793-.477-.144-1.07-.086-1.788.178-.718.265-1.5.612-2.347 1.046-.85.436-1.64.707-2.366.812-.728.107-1.34-.09-1.826-.59-.49-.502-.735-1.563-.735-3.184 0-1.265.17-2.49.514-3.678.342-1.185.78-2.278 1.318-3.28.534-1 1.137-1.907 1.807-2.725.666-.813 1.327-1.485 1.98-2.016.846-.685 1.62-1.192 2.328-1.524.704-.332 1.327-.423 1.868-.27.54.15.968.596 1.29 1.335.32.74.51 1.832.565 3.277l-2.41 1.985c-.038-.766-.16-1.326-.37-1.682-.21-.356-.476-.562-.8-.614-.324-.053-.683.007-1.074.182-.393.176-.79.43-1.194.76-.365.297-.735.647-1.11 1.05-.377.405-.72.855-1.03 1.35-.31.493-.562 1.022-.756 1.583-.194.562-.29 1.166-.29 1.81 0 .71.15 1.176.45 1.396.3.22.683.29 1.146.213.464-.08.985-.253 1.562-.522.576-.267 1.15-.526 1.725-.78.61-.28 1.205-.503 1.784-.666.578-.162 1.09-.165 1.533-.01.443.155.8.517 1.074 1.082.273.565.41 1.435.41 2.607 0 1.492-.183 2.884-.55 4.18-.367 1.295-.85 2.5-1.444 3.61-.596 1.113-1.27 2.11-2.02 2.992-.755.884-1.506 1.646-2.254 2.285-.826.707-1.617 1.238-2.37 1.594-.757.355-1.428.453-2.012.288-.585-.164-1.054-.64-1.407-1.424-.353-.787-.55-1.943-.588-3.467l2.492-2.095c.02.885.147 1.545.38 1.978zM227.92 59.89v3.513l-2.828 2.31v15.114c0 .47.022.828.068 1.07.046.245.134.39.262.44.13.048.308-.003.537-.15s.526-.376.892-.687l1.068-.905v3.514l-1.782 1.52c-.605.518-1.124.89-1.557 1.118-.433.23-.784.27-1.052.12-.27-.15-.468-.515-.598-1.098-.13-.583-.193-1.442-.193-2.578V67.637l-2.46 2.01v-3.562l2.46-1.994v-7.327l2.354-1.88v7.3l2.83-2.294zM232.55 56.134v5.063l.055-.044c.555-2.403 1.233-4.395 2.033-5.97.8-1.574 1.808-2.822 3.022-3.745v4.143c-.897.735-1.666 1.578-2.303 2.53-.64.956-1.155 2.01-1.548 3.167s-.68 2.406-.857 3.745c-.18 1.34-.27 2.784-.27 4.332v10.683l-2.29 1.958V57.883l2.158-1.75zM239.474 46.255v-4.77l2.218-1.763v4.752l-2.218 1.78zm2.217 2.468v23.62l-2.217 1.897V50.52l2.218-1.797zM247.348 35.23V47.3l.05-.042c.357-1.585.915-2.98 1.675-4.184.758-1.2 1.59-2.165 2.49-2.896 1-.81 1.87-1.185 2.605-1.128.734.058 1.345.445 1.83 1.162.483.717.85 1.7 1.094 2.947.245 1.25.367 2.687.367 4.313 0 1.627-.12 3.264-.356 4.913-.237 1.65-.597 3.222-1.08 4.714-.485 1.495-1.096 2.867-1.83 4.118-.737 1.255-1.597 2.303-2.58 3.144-.316.27-.673.515-1.066.73-.395.218-.784.356-1.172.418-.388.06-.754.005-1.1-.167-.348-.17-.64-.502-.877-.994l-.052.042v3.12l-2.172 1.854V36.954l2.172-1.725zm7.662 10.874c-.156-.897-.396-1.613-.717-2.152-.323-.54-.737-.84-1.243-.903-.507-.064-1.103.183-1.787.74-.72.59-1.332 1.344-1.837 2.267-.505.924-.92 1.93-1.24 3.02-.32 1.094-.555 2.227-.697 3.4-.146 1.174-.218 2.304-.218 3.39 0 1.145.076 2.19.23 3.13s.394 1.68.723 2.216c.33.533.756.827 1.278.88.52.055 1.15-.232 1.886-.858.734-.623 1.346-1.396 1.835-2.318.49-.92.883-1.923 1.18-3.007.298-1.084.512-2.216.644-3.396.13-1.18.197-2.332.197-3.462-.002-1.072-.08-2.054-.237-2.948z"/></g><path fill="none" stroke="#000" stroke-miterlimit="10" d="M548.862 76.426v-14M522.756 86.25v76.148l26.106-31.08V94.603M479.864 59.22l-4.814 3.39M484.85 55.712l-3.397 2.39M533.982 76.005l14.88-13.58-50.568-16.175-11.927 8.394M529.435 80.155l2.8-2.557M525.562 83.688l1.96-1.788M473.473 63.72l-3.987 2.805L522.9 86.12l.545-.5"/><path fill="none" stroke="#000" stroke-miterlimit="10" d="M469.486 136.51l53.413 25.547V86.12l-53.414-19.595zM475.655 68.79v70.67M483.5 71.69v71.552M491.345 74.827v72.507M499.19 77.3v73.132M507.034 80.265v74.158M514.878 83.436v75.12M469.486 77.3L522.9 97.81M469.486 90.296L522.9 111.91M469.486 102.82L522.9 125.5M469.486 116.4l53.413 23.836M469.486 126.81l53.413 24.72"/><path fill="none" stroke="#000" stroke-miterlimit="10" d="M540.57 118.343l-7.76 8.548v23.542l7.76-9.244zM542.512 113.228l-12.033 13.11v26.868l12.032-14.327zM536.69 122.78v23.21"/><g fill="none" stroke="#000"><path d="M466.628 64.53l-3.6-20.835-.034-.014-2.54 18.59-1.84-.67-4.02-24.515 1.785.613 3.126 20.338.036.014 2.447-18.424 1.928.664 3.504 20.61.04.017 2.2-18.65 1.804.617-2.972 22.328-1.866-.682zM474.54 43.94l.247 9.07.037.013c.112-.486.277-.873.5-1.158.22-.285.47-.494.75-.625.28-.135.576-.2.888-.2.312-.002.613.05.908.152.656.228 1.204.575 1.648 1.04.447.464.812 1.023 1.1 1.674.286.652.495 1.382.626 2.188.13.81.208 1.68.232 2.615l.312 11.365-1.645-.603-.318-11.68c-.028-1.068-.23-1.978-.61-2.73-.376-.747-.878-1.232-1.507-1.454-.5-.176-.928-.194-1.285-.055-.354.137-.648.405-.88.807-.23.402-.395.91-.5 1.52-.102.612-.14 1.305-.12 2.08l.267 9.7-1.625-.594-.646-23.685 1.62.56zM483.708 58.69c.175-1.034.46-1.884.854-2.552.395-.67.89-1.135 1.486-1.39.6-.257 1.296-.244 2.093.033.812.285 1.528.768 2.152 1.454.62.685 1.155 1.514 1.598 2.482.446.97.787 2.05 1.028 3.24.243 1.19.38 2.426.417 3.71.034 1.284-.04 2.44-.22 3.466-.184 1.026-.472 1.874-.87 2.543-.4.67-.898 1.12-1.494 1.358-.598.237-1.304.208-2.112-.09-.798-.292-1.508-.78-2.132-1.46-.624-.683-1.156-1.507-1.593-2.475-.44-.968-.777-2.035-1.014-3.204-.24-1.168-.375-2.39-.41-3.662-.032-1.268.04-2.42.218-3.452zm1.858 6.97c.186.876.427 1.64.73 2.29.3.652.648 1.194 1.038 1.626.396.43.805.724 1.238.88.432.158.836.16 1.216.01s.702-.45.977-.897.482-1.05.624-1.81c.143-.763.197-1.672.168-2.73-.027-1.056-.137-2.024-.32-2.9-.188-.88-.434-1.653-.737-2.317-.304-.663-.652-1.21-1.047-1.638-.396-.428-.81-.718-1.238-.87-.432-.152-.834-.147-1.213.006-.375.157-.698.464-.97.923-.272.46-.48 1.066-.615 1.826-.14.758-.197 1.66-.168 2.712.025 1.052.132 2.014.316 2.888zM496.685 51.555l.662 24.21-1.69-.62-.66-24.172 1.688.582zM507.33 78.297c-.756.718-1.73.858-2.913.425-.834-.306-1.562-.797-2.185-1.475-.62-.676-1.15-1.498-1.59-2.466-.437-.965-.77-2.053-1.012-3.26-.238-1.21-.388-2.484-.45-3.828-.037-1.337.053-2.518.26-3.543.21-1.024.522-1.87.934-2.533.41-.664.91-1.117 1.492-1.364.583-.244 1.232-.243 1.946.007.93.324 1.705.918 2.34 1.783.633.865 1.147 1.865 1.55 3 .4 1.137.688 2.324.86 3.56.177 1.24.264 2.39.267 3.455l-7.82-2.803c.008.768.08 1.517.222 2.252.14.736.35 1.42.633 2.048.283.63.638 1.182 1.062 1.65.424.47.92.808 1.484 1.014.73.262 1.315.195 1.768-.206.45-.4.733-1.156.853-2.265l1.707.614c-.18 1.905-.65 3.216-1.406 3.933zm-.726-11.507c-.17-.67-.396-1.274-.67-1.812-.274-.536-.597-.997-.96-1.388-.363-.387-.763-.656-1.19-.81-.444-.153-.84-.163-1.188-.027-.35.136-.645.388-.887.75-.243.365-.43.82-.56 1.37-.133.55-.2 1.16-.21 1.832l5.992 2.133c-.046-.694-.156-1.375-.328-2.048zM512.065 77.218c.175.506.397.94.672 1.3.27.36.58.657.917.894.34.238.687.42 1.043.55.273.1.56.17.86.212.3.04.574.015.823-.074.25-.094.452-.288.608-.584.152-.298.226-.722.21-1.274-.02-.76-.21-1.397-.562-1.912-.354-.514-.793-.985-1.313-1.412-.52-.424-1.086-.845-1.693-1.255-.604-.41-1.17-.885-1.692-1.425-.52-.536-.96-1.187-1.315-1.948-.36-.764-.553-1.716-.583-2.86-.024-.89.073-1.613.293-2.172.223-.556.514-.97.877-1.238.364-.27.78-.418 1.246-.45.465-.028.93.036 1.394.2.604.21 1.163.49 1.677.84.515.352.972.81 1.377 1.37.4.563.73 1.25.985 2.057.253.81.416 1.762.486 2.857l-1.758-.622c-.044-.584-.146-1.093-.31-1.525-.16-.434-.36-.805-.602-1.12-.24-.31-.5-.567-.787-.77-.284-.2-.568-.354-.857-.456-.26-.09-.52-.146-.785-.173-.268-.025-.505.01-.72.106-.215.095-.387.26-.514.5-.13.237-.188.585-.176 1.04.015.507.132.964.354 1.37.222.406.497.778.83 1.112.333.337.71.65 1.125.946.415.295.828.598 1.246.903.442.32.88.668 1.306 1.048.425.382.807.82 1.142 1.315.335.496.61 1.07.824 1.715.217.65.337 1.4.358 2.255.03 1.084-.08 1.934-.33 2.548-.25.617-.587 1.066-1.01 1.346-.42.278-.9.404-1.437.378-.54-.027-1.075-.138-1.61-.334-.59-.217-1.153-.523-1.693-.925-.533-.403-1.017-.913-1.438-1.533-.422-.617-.765-1.354-1.03-2.21-.267-.853-.426-1.836-.48-2.943l1.732.626c.025.644.13 1.22.307 1.728zM530.756 87.912c-.303.19-.728.184-1.278-.018-.463-.17-.838-.52-1.124-1.05-.283-.53-.44-1.284-.47-2.258-.465.796-1.016 1.29-1.654 1.48-.64.192-1.336.15-2.09-.128-.484-.176-.954-.438-1.395-.784-.445-.345-.83-.77-1.162-1.282-.328-.507-.6-1.115-.8-1.816-.205-.703-.32-1.505-.348-2.405-.025-1.016.06-1.808.245-2.38.19-.572.448-1 .777-1.283.33-.282.71-.45 1.144-.5.437-.053.88-.066 1.335-.04.482.013.943.055 1.385.13.438.076.82.1 1.15.067.334-.03.595-.157.784-.376.188-.223.272-.61.258-1.168-.018-.65-.104-1.2-.264-1.646-.16-.446-.356-.816-.592-1.105-.236-.293-.5-.523-.79-.693-.29-.17-.57-.305-.853-.404-.753-.265-1.374-.247-1.86.05-.488.3-.736 1.1-.742 2.4l-1.77-.626c-.002-1.1.113-1.984.34-2.66.23-.675.547-1.175.95-1.502.403-.327.87-.502 1.4-.523s1.104.076 1.718.29c.49.17.977.4 1.464.684.487.285.932.678 1.334 1.173.403.498.732 1.113.99 1.848.257.733.4 1.623.43 2.668l.253 9.267c.02.697.057 1.216.113 1.558.06.343.23.566.51.67.155.057.337.076.546.06l.066 2.302zm-3.166-10.3c-.217.198-.505.295-.867.292-.358-.004-.735-.036-1.136-.1-.396-.06-.795-.113-1.196-.154-.398-.042-.76-.005-1.07.112-.314.113-.565.348-.756.7-.19.355-.275.9-.257 1.636.016.484.083.913.21 1.29.13.377.29.702.483.978.192.275.414.505.67.688.25.184.52.325.797.426.587.216 1.086.265 1.5.15.41-.11.745-.322.998-.63.257-.308.44-.675.557-1.104.112-.43.165-.85.15-1.267l-.082-3.02zM533.66 64.27l.686 25.026-1.807-.662-.687-24.985 1.808.62zM545.02 92.042c-.81.733-1.852.865-3.118.4-.893-.325-1.667-.843-2.333-1.55-.665-.708-1.23-1.564-1.696-2.57-.467-1.006-.825-2.13-1.08-3.384-.252-1.25-.412-2.57-.478-3.962-.038-1.38.056-2.602.28-3.658.225-1.055.56-1.925 1-2.605.438-.682.976-1.144 1.6-1.392.622-.244 1.314-.235 2.08.032.99.347 1.824.97 2.5 1.87.676.904 1.227 1.945 1.653 3.125.428 1.178.73 2.41.917 3.692.188 1.28.28 2.474.28 3.572l-8.36-2.997c.008.792.083 1.568.233 2.33.148.763.372 1.47.674 2.125.305.654.683 1.23 1.136 1.72.45.488.98.845 1.586 1.063.775.284 1.407.22 1.89-.187.483-.407.786-1.187.912-2.33l1.826.656c-.19 1.97-.692 3.32-1.503 4.05zm-.765-11.903c-.185-.697-.422-1.324-.715-1.883-.294-.56-.64-1.04-1.028-1.447-.388-.404-.812-.688-1.27-.85-.48-.167-.9-.182-1.272-.046-.373.137-.688.392-.946.765-.26.373-.462.842-.6 1.41-.14.565-.216 1.194-.225 1.888l6.403 2.282c-.047-.718-.164-1.425-.348-2.12zM549.958 76.81l.104 3.874.044.016c.41-1.335.937-2.242 1.573-2.724.64-.48 1.466-.522 2.48-.12l.088 3.212c-.75-.263-1.382-.322-1.9-.176-.52.145-.93.482-1.23 1.01-.306.527-.522 1.22-.643 2.08-.12.862-.163 1.883-.133 3.067l.226 8.178-1.86-.68-.5-18.35 1.75.61z"/></g><g fill="none" stroke="#000"><path stroke-miterlimit="10" d="M54.545 246.864v16.927l-4.62-4.41M46.898 256.486L5.495 216.94V175.88l49.05 39.563v18.85M74.233 199.786l-19.167 15.65L4.98 175.523M54.545 215.445l19.688-15.66-.445 45.85-19.243 18.156M74.66 172.783l-3.194-7.87-26.277 17.82 9.355 32.712 19.688-15.66M28.004 170.186l26.54-16.194 6.893 17.723M12.62 158.95l26.153-14.502 6.114 15.438"/><g stroke-miterlimit="10"><path d="M12.62 158.95l-7.125 16.74 14.63 11.844zM28.004 170.186l-7.91 17.325 16.263 13.168zM45.19 182.732l-8.833 17.945 18.188 14.725z"/></g><path stroke-miterlimit="10" d="M98.29 193.02l-2.53-45.15M102.066 260.346l-3.554-63.382M74.97 146.893L73.66 256.29M73.668 256.29c-.126 3.637 1.412 7.422 4.64 10.315 6.085 5.46 15.488 5.396 20.634-.136 1.863-2.003 2.87-4.408 3.083-6.892"/><path stroke-miterlimit="10" d="M92.575 152.415c4.203-2.847 4.287-7.287.364-9.924-3.838-2.575-10.212-2.547-14.404.066-4.292 2.676-4.815 7.12-.994 9.928 3.912 2.877 10.726 2.844 15.033-.07zM78.285 130.646c3.833 3.833 2.667 5.476 0 8.143 0 0-3.833 4 0 7.832 3.275 3.274 2.9 4.85 1.06 6.897M92.076 130.646c3.833 3.833 2.667 5.476 0 8.143 0 0-3.833 4 0 7.832 1.694 1.692 2.412 2.933 2.455 4.017M87.48 130.646c3.832 3.833 2.666 5.476 0 8.143 0 0-3.834 4 0 7.832 3.57 3.57 2.802 5.114.526 7.467M82.882 130.646c3.833 3.833 2.667 5.476 0 8.143 0 0-3.833 4 0 7.832s2.667 5.333 0 8"/><path d="M58.708 249.85l-7.44-27.797-4.37 3.607v41.072l3.03-2.677V230.03l.07-.055 7.4 27.48 2.65-2.34 7.192-39.54.064-.054v33.184l2.86-2.526v-39.722l-4.14 3.416zM87.214 226.886c-.07-.442-.105-1.206-.105-2.29v-14.4c0-1.622-.172-2.797-.514-3.52-.343-.722-.795-1.126-1.358-1.212-.566-.083-1.2.076-1.898.483-.7.408-1.408.91-2.12 1.51-.902.758-1.747 1.633-2.538 2.627-.794 1-1.5 2.137-2.12 3.41-.624 1.28-1.122 2.686-1.496 4.217-.373 1.533-.582 3.203-.624 5.008l2.646-2.262c.063-2.146.466-3.91 1.21-5.293.738-1.377 1.662-2.534 2.77-3.472.406-.343.82-.64 1.237-.884.417-.242.792-.345 1.128-.3.334.042.607.283.82.722.213.438.318 1.164.318 2.18 0 .87-.14 1.654-.424 2.354-.284.697-.668 1.372-1.156 2.026-.488.655-1.052 1.32-1.694 2-.645.683-1.325 1.46-2.044 2.333-.678.803-1.343 1.65-1.992 2.54-.65.89-1.232 1.88-1.74 2.96-.51 1.086-.92 2.278-1.233 3.58-.312 1.305-.47 2.77-.47 4.392 0 1.438.14 2.543.422 3.312.28.767.66 1.252 1.14 1.454.477.205 1.04.166 1.693-.115.65-.282 1.336-.74 2.057-1.378 1.106-.98 2.135-2.228 3.083-3.738.946-1.508 1.77-3.335 2.48-5.48 0 1.52.196 2.446.59 2.77.394.32.923.19 1.585-.396.783-.69 1.394-1.47 1.833-2.322v-3.573c-.3.408-.56.708-.78.9-.4.35-.637.305-.706-.14zm-2.675-3.236c0 .65-.092 1.426-.274 2.324s-.466 1.834-.85 2.807c-.388.972-.885 1.934-1.495 2.885-.61.956-1.347 1.81-2.207 2.565-.41.358-.802.63-1.172.812-.37.18-.695.228-.974.144-.278-.084-.506-.313-.68-.69-.177-.376-.266-.947-.266-1.718 0-1.168.15-2.223.45-3.157.3-.937.687-1.79 1.16-2.562.474-.774 1.008-1.502 1.604-2.183.594-.676 1.182-1.33 1.764-1.96.58-.628 1.135-1.272 1.664-1.928.527-.653.952-1.338 1.275-2.05v4.714h.002zM102.458 192.415c-.402-.543-.93-.787-1.584-.733-.655.058-1.476.496-2.463 1.326-2.237 1.88-3.882 4.943-4.923 9.188l-.06.052v-4.406l-2.37 1.995v27.884l2.518-2.224v-15.688c0-1.255.094-2.49.28-3.705.188-1.217.467-2.377.84-3.48.372-1.103.838-2.103 1.395-3.005.556-.898 1.214-1.67 1.972-2.312.95-.805 1.694-.938 2.234-.402.54.533.81 1.65.81 3.35v18.592l2.442-2.156v-17.992c0-1.48-.08-2.762-.243-3.842-.163-1.086-.445-1.897-.847-2.44zM116.762 193.346c0 1.21-.088 2.4-.262 3.57-.175 1.173-.436 2.292-.785 3.357-.35 1.067-.786 2.04-1.312 2.918-.526.88-1.15 1.636-1.874 2.27-.912.802-1.63.944-2.153.427-.523-.52-.786-1.617-.786-3.297v-18.35l-2.396 2.018v17.893c0 1.476.08 2.747.24 3.815.16 1.07.438 1.868.834 2.396.396.528.91.747 1.55.655.635-.09 1.428-.557 2.377-1.396 1.058-.94 1.974-2.14 2.75-3.603.77-1.46 1.405-3.237 1.9-5.334l.055-.047v4.25l2.19-1.936v-26.706l-2.327 1.958v15.144zM126.237 164.207c.303-.66.73-1.218 1.278-1.675.194-.16.407-.312.637-.452.23-.14.44-.223.636-.25v-3.764c-.212.04-.455.14-.73.295-.273.16-.517.325-.73.5-1.242 1.025-2.19 2.364-2.843 4.012-.653 1.65-.98 3.556-.98 5.71v3.95l-2.35 1.977v3.86l2.35-1.99v22.673l2.28-2.014v-22.592l2.66-2.255v-3.817l-2.66 2.238v-3.68c0-1.157.15-2.067.452-2.727z"/></g><path fill="none" stroke="#000" stroke-miterlimit="10" d="M570.608 168.867v19.506M570.608 206.115v23.474l65.47 42.676V206.94"/><path fill="none" stroke="#000" stroke-miterlimit="10" d="M625.98 240.702l-65.626-40.993 10.254-11.337 64.896 39.206zM643.323 197.128l1.58-2.1M638.206 203.927l3.448-4.58M571.252 168.184l-.644.683 65.37 38.018.807-1.073M576.63 162.46l-3.12 3.32M581.95 156.795l-2.452 2.612M646.53 192.865l20.44-27.155-62.74-32.622-20.176 21.47M636.08 206.753v65.513l30.89-46.018v-12.853M666.97 184.223V165.71M651.16 206.008l-15.656 21.57 15.347 9.276 30.767-44.778-14.624-7.885-8.916 12.287"/><path fill="none" stroke="#000" stroke-miterlimit="10" d="M623.896 239.455l-45.95-28.706v23.622l45.95 29.95zM623.896 264.323l-22.974-14.975v-23.996l22.974 14.36zM565.51 198.34l59.57 36.896M569.21 195.467l58.656 36.017M571.677 192.41l58.73 35.712M650.982 212.297l-9.968 13.89M659.312 200.69l-5.33 7.427M668.153 188.373l-7.52 10.48M671.922 190.72l-26.882 38.007M675.477 193.168l-26.472 37.964M642.062 231.173v32.18l20.178-30.06v-13.018M653.227 246.72v-13.675"/><g fill="none" stroke="#000"><path d="M568.213 138.348c1.957 1.085 3.473 2.585 4.544 4.505 1.074 1.92 1.58 4.02 1.52 6.29-.05 1.694-.377 3.02-.982 3.978-.606.955-1.54 1.313-2.808 1.07l-.003.08c.594.493 1.07 1.028 1.438 1.605.367.58.652 1.188.86 1.82.207.635.354 1.296.443 1.98.09.69.152 1.386.192 2.1.02.698.028 1.407.027 2.122 0 .718.025 1.437.087 2.158.06.725.15 1.435.277 2.13.13.7.33 1.364.608 2.005l-3.07-1.78c-.185-.396-.306-.865-.357-1.396-.054-.535-.08-1.113-.082-1.735-.002-.623-.003-1.292-.003-2.008.002-.713-.038-1.437-.113-2.168-.062-.722-.137-1.418-.235-2.098-.098-.68-.265-1.314-.504-1.912-.233-.598-.552-1.146-.944-1.65-.396-.502-.93-.942-1.6-1.322l-6.614-3.766-.333 11.798-2.685-1.558.775-27.548 9.563 5.3zm.22 12.938c.578.194 1.09.226 1.53.093.446-.133.807-.444 1.08-.937.28-.49.434-1.242.463-2.258.04-1.406-.22-2.717-.77-3.922s-1.473-2.166-2.754-2.882l-6.732-3.748-.27 9.63 5.643 3.194c.627.356 1.23.634 1.81.83zM587.96 176.72c-1.183.495-2.644.238-4.38-.77-1.222-.71-2.272-1.586-3.147-2.628-.876-1.04-1.603-2.208-2.18-3.5-.58-1.295-1-2.682-1.266-4.162-.266-1.482-.395-3.006-.392-4.57.043-1.544.26-2.855.646-3.94.387-1.083.91-1.92 1.57-2.505.66-.588 1.437-.896 2.32-.935.888-.034 1.854.24 2.897.825 1.36.763 2.48 1.773 3.36 3.033.883 1.26 1.58 2.627 2.098 4.1.514 1.475.854 2.96 1.026 4.455.17 1.498.218 2.857.147 4.08l-11.463-6.55c-.047.88.01 1.77.163 2.67.15.9.416 1.774.79 2.614.372.845.86 1.625 1.456 2.344.602.72 1.312 1.32 2.14 1.796 1.065.615 1.952.792 2.65.525.702-.266 1.185-1.01 1.438-2.23l2.508 1.438c-.397 2.11-1.192 3.413-2.377 3.91zm-.238-13.513c-.21-.846-.498-1.63-.87-2.364-.37-.733-.814-1.4-1.33-2-.515-.596-1.09-1.073-1.72-1.43-.646-.365-1.236-.542-1.77-.536-.527.012-.985.173-1.374.488-.386.314-.696.758-.933 1.33-.232.574-.382 1.242-.442 2.007l8.774 4.99c-.016-.815-.127-1.643-.335-2.485zM600.31 164.148l-.085 3.007-3.127-1.763-.36 12.83c-.013.398.006.733.05 1.002.043.27.133.512.27.727.142.216.333.415.585.603.25.184.578.396.983.63l1.187.686-.084 3.006-1.977-1.146c-.666-.388-1.235-.776-1.704-1.172-.472-.396-.85-.838-1.13-1.324-.285-.488-.487-1.063-.61-1.73-.125-.666-.175-1.48-.147-2.438l.37-13.12-2.646-1.49.084-2.98 2.647 1.482.174-6.183 2.568 1.428-.175 6.193 3.127 1.752zM616.777 194.682c-.472.084-1.112-.107-1.928-.582-.687-.396-1.227-.966-1.616-1.7-.392-.734-.57-1.67-.54-2.807-.76.716-1.622 1.046-2.6.986-.976-.06-2.017-.41-3.127-1.055-.72-.418-1.396-.922-2.037-1.512-.64-.59-1.187-1.246-1.646-1.975-.455-.73-.812-1.54-1.064-2.436-.253-.896-.367-1.862-.337-2.908.033-1.178.213-2.055.54-2.63.326-.572.747-.952 1.26-1.138.517-.184 1.1-.213 1.747-.088.654.126 1.322.303 2.003.527.73.222 1.416.47 2.067.744.653.276 1.23.468 1.732.573.502.107.9.072 1.2-.1.303-.174.46-.583.48-1.23.02-.756-.072-1.426-.276-2.01-.204-.582-.476-1.093-.812-1.527-.333-.436-.713-.813-1.134-1.133-.423-.32-.84-.597-1.25-.826-1.113-.63-2.05-.875-2.805-.74-.753.134-1.183.947-1.286 2.445l-2.605-1.48c.076-1.264.312-2.232.704-2.91.39-.676.9-1.115 1.53-1.322.63-.203 1.345-.205 2.142-.002.798.2 1.65.557 2.557 1.062.725.406 1.438.876 2.15 1.41.71.537 1.35 1.178 1.92 1.923.57.746 1.023 1.596 1.355 2.552.333.955.48 2.04.446 3.258l-.303 10.785c-.02.812-.004 1.428.06 1.85.063.42.304.75.723.992.23.13.504.235.817.31l-.07 2.692zm-4.01-13.246c-.34.135-.78.123-1.32-.037-.545-.16-1.11-.36-1.702-.605-.59-.24-1.188-.475-1.787-.695s-1.14-.332-1.62-.334c-.478-.002-.873.158-1.184.482-.312.324-.48.913-.504 1.768-.018.562.06 1.086.22 1.573.165.487.382.93.65 1.33.27.398.59.76.956 1.082.366.318.756.598 1.165.835.864.5 1.612.774 2.24.823.627.05 1.145-.05 1.553-.29.406-.245.71-.588.914-1.032.2-.443.31-.908.32-1.393l.1-3.51zM620.114 171.41l.12-4.243 2.686 1.49-.12 4.252-2.686-1.5zm2.578 5.3l-.597 21.138-2.685-1.557.594-21.087 2.688 1.508zM629.997 172.577l-.828 29.37-2.72-1.574.826-29.303 2.72 1.507zM645.394 209.96c-1.31.485-2.923.17-4.845-.944-1.35-.783-2.51-1.738-3.48-2.863-.972-1.12-1.775-2.37-2.415-3.752-.644-1.376-1.108-2.85-1.403-4.415-.293-1.566-.44-3.176-.438-4.82.046-1.624.28-3 .705-4.13.427-1.127 1.002-1.99 1.73-2.585.73-.6 1.584-.9 2.563-.914.98-.01 2.05.31 3.2.955 1.51.845 2.748 1.94 3.725 3.295.978 1.352 1.75 2.812 2.322 4.38.568 1.566.952 3.145 1.145 4.725.192 1.58.244 3.016.164 4.3l-12.68-7.247c-.05.927.013 1.863.185 2.814.168.953.462 1.88.877 2.777.415.896.954 1.734 1.614 2.508.662.775 1.453 1.432 2.365 1.958 1.18.683 2.156.896 2.932.634.776-.257 1.305-1.025 1.586-2.305l2.776 1.592c-.442 2.205-1.32 3.553-2.63 4.038zm-.285-14.23c-.234-.896-.558-1.73-.968-2.518-.412-.782-.904-1.497-1.476-2.144-.57-.646-1.204-1.166-1.902-1.56-.717-.403-1.368-.608-1.955-.616-.582-.007-1.09.15-1.52.47-.426.323-.77.78-1.026 1.376-.258.595-.42 1.295-.486 2.098l9.71 5.52c-.023-.858-.148-1.734-.38-2.627zM654.2 194.393l-.13 4.578.064.038c.74-1.375 1.627-2.2 2.66-2.475 1.028-.278 2.32.047 3.874.976l-.106 3.8c-1.148-.646-2.135-1.003-2.95-1.062-.818-.062-1.483.146-1.996.625-.517.48-.896 1.192-1.15 2.146-.254.95-.4 2.126-.438 3.525l-.272 9.665-2.835-1.645.61-21.672 2.67 1.5z"/></g></svg>